Coordinates
version=1
nRows=5
nColumns=42
inDegrees=yes

Units are S.I. units (second, meters, Newtons, ...)
If the header above contains a line with 'inDegrees', this indicates whether rotational values are in degrees (yes) or radians (no).

endheader
time	pelvis_tilt	pelvis_list	pelvis_rotation	pelvis_tx	pelvis_ty	pelvis_tz	hip_flexion_r	hip_adduction_r	hip_rotation_r	knee_angle_r	knee_adduction_r	knee_angle_r_beta	ankle_angle_r	subtalar_angle_r	mtp_angle_r	hip_flexion_l	hip_adduction_l	hip_rotation_l	knee_angle_l	knee_adduction_l	knee_angle_l_beta	ankle_angle_l	subtalar_angle_l	mtp_angle_l	lumbar_extension	lumbar_bending	lumbar_rotation	arm_flex_r	arm_add_r	arm_rot_r	elbow_flex_r	pro_sup_r	wrist_flex_r	wrist_dev_r	arm_flex_l	arm_add_l	arm_rot_l	elbow_flex_l	pro_sup_l	wrist_flex_l	wrist_dev_l
      0.30000000	     17.69714045	      3.87993971	      5.58707817	     -1.55576271	      0.89471847	     -0.01831586	      4.84467967	     -0.96825733	    -14.13318162	     29.81397507	     -3.00959627	      0.52035203	     11.27546717	     -2.05004411	     -9.62225126	    -23.92739071	     -2.64755827	      0.85109441	     45.80728448	      4.28551443	      0.79948794	      1.14217888	     -2.73274137	     -9.62225126	    -35.42995083	     -0.98437442	     -4.55425137	      2.25879808	     -5.88096970	    -35.53129911	     24.87169550	     90.00000001	      0.00000000	      0.00000000	      7.69613862	     -8.48096777	    -33.73592145	     33.71376383	     90.00000001	      0.00000000	      0.00000000
      0.31000000	     18.04004337	      3.97051155	      5.17266459	     -1.54731998	      0.89621485	     -0.01688084	      3.85701993	     -0.84595711	    -14.17776741	     29.75991599	     -3.20168151	      0.51940852	     11.70756666	     -1.81104888	     -9.59580877	    -23.15396101	     -2.35012642	      1.23647884	     48.00814137	      4.36707969	      0.83790013	      1.06107468	     -3.26261306	     -9.59580877	    -35.83485082	     -1.20601524	     -4.42508516	      2.71229555	     -5.90908959	    -35.37013900	     25.11656865	     90.00000001	      0.00000000	      0.00000000	      7.48417659	     -8.42295462	    -33.65635186	     33.70472634	     90.00000001	      0.00000000	      0.00000000
      0.32000000	     17.84801461	      3.58190095	      5.41025782	     -1.53917153	      0.89662993	     -0.01639235	      3.30426603	     -0.31458991	    -14.71766600	     29.34003431	     -3.20739914	      0.51208020	     12.69961598	     -1.12459309	     -9.54642738	    -21.29224532	     -2.77989745	      1.83967899	     50.98362685	      4.44220934	      0.88983215	      0.68425821	     -5.51145979	     -9.54642738	    -35.61591738	     -0.65664632	     -4.63236378	      3.13908744	     -6.01657415	    -34.85407381	     25.51770158	     90.00000001	      0.00000000	      0.00000000	      7.16249860	     -8.29521972	    -33.53110284	     33.57441502	     90.00000001	      0.00000000	      0.00000000
      0.33000000	     17.78480860	      3.40569340	      5.35802162	     -1.53127478	      0.89729447	     -0.01531387	      2.82204040	      0.08216917	    -15.20148301	     29.26487691	     -3.54925468	      0.51076846	     13.38749702	     -0.29001573	     -9.48808374	    -19.69892292	     -2.93112212	      2.69033763	     53.50923608	      4.98162602	      0.93391235	      0.41485764	     -8.12304332	     -9.48808374	    -35.59571270	     -0.50312338	     -4.60651253	      3.50280036	     -6.09069422	    -33.95385084	     25.90454750	     90.00000001	      0.00000000	      0.00000000	      7.04080818	     -8.19238376	    -33.45983208	     33.39178178	     90.00000001	      0.00000000	      0.00000000
      0.34000000	     17.74808344	      3.42993667	      5.25120251	     -1.52363842	      0.89805541	     -0.01444079	      2.34554731	      0.16433697	    -15.62397823	     29.30714696	     -3.77947713	      0.51150621	     14.05428160	      0.54884654	     -9.39751174	    -18.14315379	     -2.77064114	      3.55029354	     55.79033933	      5.48004039	      0.97372511	      0.06973235	    -10.86462411	     -9.39751174	    -35.66894165	     -0.55050000	     -4.61530545	      3.81308038	     -6.24605384	    -32.49688705	     26.40922912	     90.00000001	      0.00000000	      0.00000000	      6.97930583	     -8.10883279	    -33.42141282	     33.23791335	     90.00000001	      0.00000000	      0.00000000
